{
  "accessors": [
    {
      "name": "ElmTree_Mesh_1_0_positions",
      "componentType": 5126,
      "count": 5863,
      "min": [
        -7.201495170593262,
        0.00016500000492669642,
        -4.743059158325195
      ],
      "max": [
        7.565883159637451,
        21.611495971679688,
        5.52723503112793
      ],
      "type": "VEC3",
      "bufferView": 0,
      "byteOffset": 0
    },
    {
      "name": "ElmTree_Mesh_1_0_normals",
      "componentType": 5126,
      "count": 5863,
      "min": [
        -0.999506950378418,
        -0.9999976754188538,
        -0.9998589754104614
      ],
      "max": [
        0.9970824718475342,
        0.9999565482139587,
        0.9968324899673462
      ],
      "type": "VEC3",
      "bufferView": 1,
      "byteOffset": 0
    },
    {
      "name": "ElmTree_Mesh_1_0_texcoords",
      "componentType": 5126,
      "count": 5863,
      "min": [
        0.006769999861717224,
        0.005791999865323305
      ],
      "max": [
        0.9932299852371216,
        0.9901570081710815
      ],
      "type": "VEC2",
      "bufferView": 2,
      "byteOffset": 0
    },
    {
      "name": "ElmTree_Mesh_1_0_indices",
      "componentType": 5123,
      "count": 6759,
      "min": [
        0
      ],
      "max": [
        5862
      ],
      "type": "SCALAR",
      "bufferView": 3,
      "byteOffset": 0
    }
  ],
  "asset": {
    "generator": "obj2gltf",
    "version": "2.0"
  },
  "buffers": [
    {
      "uri": "elm-tree_data.bin",
      "byteLength": 201136
    }
  ],
  "bufferViews": [
    {
      "name": "bufferView_0",
      "buffer": 0,
      "byteLength": 70356,
      "byteOffset": 0,
      "byteStride": 12,
      "target": 34962
    },
    {
      "name": "bufferView_1",
      "buffer": 0,
      "byteLength": 70356,
      "byteOffset": 70356,
      "byteStride": 12,
      "target": 34962
    },
    {
      "name": "bufferView_2",
      "buffer": 0,
      "byteLength": 46904,
      "byteOffset": 140712,
      "byteStride": 8,
      "target": 34962
    },
    {
      "name": "bufferView_3",
      "buffer": 0,
      "byteLength": 13520,
      "byteOffset": 187616,
      "target": 34963
    }
  ],
  "images": [
    {
      "name": "ElmTree_BaseColor",
      "uri": "elm-tree_img0.png"
    }
  ],
  "materials": [
    {
      "name": "ElmTree_Mat",
      "pbrMetallicRoughness": {
        "baseColorTexture": {
          "index": 0
        },
        "baseColorFactor": [
          1,
          1,
          1,
          1
        ],
        "metallicFactor": 0,
        "roughnessFactor": 1
      },
      "emissiveFactor": [
        0,
        0,
        0
      ],
      "alphaMode": "OPAQUE",
      "doubleSided": false
    }
  ],
  "meshes": [
    {
      "name": "ElmTree_Mesh_1",
      "primitives": [
        {
          "attributes": {
            "POSITION": 0,
            "NORMAL": 1,
            "TEXCOORD_0": 2
          },
          "indices": 3,
          "material": 0,
          "mode": 4
        }
      ]
    }
  ],
  "nodes": [
    {
      "name": "ElmTree_Mesh",
      "mesh": 0
    }
  ],
  "samplers": [
    {
      "magFilter": 9729,
      "minFilter": 9986,
      "wrapS": 10497,
      "wrapT": 10497
    }
  ],
  "scene": 0,
  "scenes": [
    {
      "nodes": [
        0
      ]
    }
  ],
  "textures": [
    {
      "name": "ElmTree_BaseColor",
      "sampler": 0,
      "source": 0
    }
  ]
}